<?xml version="1.0" standalone="no"?>
<!DOCTYPE svg PUBLIC "-//W3C//DTD SVG 1.1//EN" "http://www.w3.org/Graphics/SVG/1.1/DTD/svg11.dtd" >
<!--
2013-9-30: Created.
-->
<svg>
<metadata>
Created by iconfont
</metadata>
<defs>

<font id="iconfont" horiz-adv-x="1024" >
  <font-face
    font-family="iconfont"
    font-weight="500"
    font-stretch="normal"
    units-per-em="1024"
    ascent="896"
    descent="-128"
  />
    <missing-glyph />
    
    <glyph glyph-name="weiruan" unicode="&#983551;" d="M454.656 32.768l-1.024 343.04 455.68-2.048 0-409.6zM453.632 752.64l455.68 68.608 0-378.88-455.68 0 0 310.272zM65.536 376.832l325.632-1.024 0-336.896-325.632 52.224 0 285.696zM65.536 442.368l0 251.904 325.632 52.224 0-304.128-325.632 0z"  horiz-adv-x="1024" />

    
    <glyph glyph-name="yonghu" unicode="&#58883;" d="M512.011532 748c86.52 0 145.28-29.44 174.6-87.504 24.504-48.56 24.504-107.248 24.504-159 0-67.12-33.88-147.28-93.024-219.872l-37.504-46.096 43.192-40.84c19.568-18.44 62.016-41.256 138.656-79.568 71.768-35.872 120.584-61.152 143.904-84.496 41.104-41.096 53.072-118 53.632-156.968 0.096-5.688-2.128-11.248-6.096-15.28-4.064-4.136-9.472-6.384-15.216-6.384L85.315532-148.008c-5.664 0-11.224 2.312-15.192 6.384-3.968 4.032-6.2 9.592-6.144 15.248 0.184 10.744 3.144 106.472 53.632 157 23.32 23.312 72.144 48.552 143.904 84.496 76.608 38.248 119.088 61.104 138.656 79.632l43.192 40.816-37.504 46.064c-59.072 72.56-92.992 152.72-92.992 219.872 0 51.752 0 110.44 24.504 159C366.731532 718.56 425.435532 748 512.011532 748M512.011532 812C371.643532 812 308.507532 745.312 280.275532 689.336c-31.384-62.152-31.384-131.84-31.384-187.84 0-82.56 39.384-176.808 107.336-260.28-16.256-15.352-83.144-48.792-123.336-68.84-79.704-39.872-130.28-66.248-160.52-96.504-66.968-66.96-72.032-179.368-72.36-201.24-0.376-22.824 8.456-44.872 24.504-61.192 16.032-16.24 37.944-25.432 60.8-25.432l853.352 0c22.872 0 44.76 9.184 60.792 25.432 16.04 16.32 24.88 38.376 24.536 61.224-0.344 21.84-5.44 134.248-72.392 201.208-30.192 30.256-80.8 56.632-160.528 96.504-40.192 20.056-107.088 53.496-123.312 68.84 67.92 83.472 107.336 177.72 107.336 260.28 0 56 0 125.688-31.352 187.84C715.499532 745.312 652.355532 812 512.011532 812L512.011532 812z"  horiz-adv-x="1025" />

    
    <glyph glyph-name="shubiao" unicode="&#58909;" d="M353.167017-61.688735c-72.428589 0-140.522454 28.204365-191.738929 79.432097l-8.908904 8.909927c-105.721857 105.708554-105.721857 277.747815 0 383.469672l190.747345 190.747345c51.203172 51.215452 119.297037 79.420841 191.725626 79.420841s140.522454-28.204365 191.738929-79.420841l8.90788-8.90788c105.721857-105.72288 105.721857-277.753955 0-383.478881L544.904922 17.743362C493.689471-33.48437 425.595606-61.688735 353.167017-61.688735zM534.993179 626.154155c-57.95597 0-112.463398-22.574135-153.448858-63.560618L190.796976 371.846192c-84.615143-84.616166-84.615143-222.303039 0-306.917158l8.90788-8.90788c40.98546-40.999786 95.492888-63.574944 153.462161-63.574944s112.463398 22.575158 153.462161 63.574944l190.735066 190.740182c84.615143 84.615143 84.615143 222.309178 0 306.924321l-8.90788 8.90788C647.469879 603.580021 592.962451 626.154155 534.993179 626.154155zM198.105429 128.845763c-4.282536 0-8.498558 2.034333-11.128455 5.842055-51.202149 73.849962-36.941354 152.914692 41.237193 228.646514l42.49279 42.479487c5.2864 5.2864 13.851473 5.2864 19.137873 0 5.287423-5.287423 5.287423-13.851473 0-19.138896l-42.638099-42.638099c-68.503187-66.349127-81.231069-131.549082-37.985126-193.938014 4.25593-6.133697 2.723018-14.56574-3.41068-18.847254C203.458343 129.639848 200.761931 128.845763 198.105429 128.845763zM230.408135 89.3267c-3.462868 0-6.925736 1.323135-9.555633 3.965312l-6.317892 6.291287c-5.2864 5.2864-5.2864 13.850449-0.013303 19.136849 5.287423 5.288446 13.864776 5.288446 19.137873 0l6.317892-6.28924c5.287423-5.2864 5.287423-13.852496 0.013303-19.138896C237.346151 90.649835 233.86998 89.3267 230.408135 89.3267zM685.720042 183.326585c-2.062985 0-4.16281 0.475837-6.133697 1.453095-264.603447 134.726447-356.672352 351.84337-360.465748 361.015264-2.841721 6.912433 0.435928 14.81645 7.335059 17.671475 6.89913 2.868327 14.81645-0.422625 17.683754-7.321756 0.898463-2.167363 92.452645-217.260186 347.738889-347.222119 6.6607-3.397377 9.304923-11.552104 5.92085-18.219967C695.406658 186.022996 690.649308 183.326585 685.720042 183.326585zM534.993179 396.244882c-3.462868 0-6.92676 1.322112-9.568936 3.965312-5.287423 5.287423-5.287423 13.851473 0 19.137873l47.857984 47.872311c5.287423 5.287423 13.852496 5.287423 19.138896 0s5.2864-13.851473 0-19.137873l-47.860031-47.872311C541.918915 397.566994 538.455023 396.244882 534.993179 396.244882zM724.655819 537.164379c-13.996782 0-25.839505 10.771321-26.963095 24.953322-0.277316 3.555989-5.483898 87.959308 113.744577 146.629545 62.833047 30.901801 83.717703 102.563934 83.915201 103.290481 4.071735 14.367219 19.044752 22.707165 33.411971 18.688641 14.380522-4.070712 22.747073-19.019169 18.688641-33.411971-1.095961-3.885494-27.887141-95.716992-112.118544-137.152706-85.262896-41.950438-83.703377-93.298919-83.663468-93.813642 1.163499-14.895245-9.965979-27.928073-24.874527-29.103852C726.084355 537.190985 725.37111 537.164379 724.655819 537.164379z"  horiz-adv-x="1024" />

    
    <glyph glyph-name="android" unicode="&#58887;" d="M963.615 548.916q23.342 0 39.58-14.716t16.238-36.028v-299.386q0-20.297-16.238-35.013t-39.58-14.716h-18.268q-23.342 0-39.58 14.716t-16.238 35.013v299.386q0 21.312 16.238 36.028t39.58 14.716h18.268zM140.559 548.916q23.342 0 38.565-14.716t15.223-36.028v-299.386q0-20.297-15.223-35.013t-38.565-14.716h-18.268q-23.342 0-39.58 14.716t-16.238 35.013v299.386q0 21.312 16.238 36.028t39.58 14.716h18.268zM700.765 784.365q18.268-8.119 38.057-22.327t38.057-33.491 31.968-42.117 19.79-48.206h-576.444q16.238 53.788 51.251 88.293t70.533 54.803l-51.758 81.189q-2.030 2.030-0.507 7.611t10.656 11.671q8.119 7.104 15.223 6.597t9.134-2.537l52.773-83.219q28.416 13.193 59.877 20.297t64.951 7.104q69.011 0 128.888-28.416l53.788 84.234q2.030 2.030 7.611 2.030t16.745-6.089q10.149-5.074 11.671-9.134t-0.507-6.089zM417.617 697.086q13.193 0 22.327 9.134t9.134 22.327-9.134 22.327-22.327 9.134-22.327-9.134-9.134-22.327 9.134-22.327 22.327-9.134zM667.275 701.146q13.193 0 22.327 9.134t9.134 22.327-9.134 22.327-22.327 9.134-22.327-9.134-9.134-22.327 9.134-22.327 22.327-9.134zM828.638 574.287l1.015-456.69q0-22.327-14.716-37.55t-36.028-15.223h-14.208v-142.081q0-20.297-14.716-35.52t-36.028-15.223h-29.431q-20.297 0-35.013 15.223t-14.716 35.52v142.081h-186.735v-142.081q0-20.297-14.716-35.52t-36.028-15.223h-29.431q-20.297 0-35.013 15.223t-14.716 35.52v142.081h-11.164q-21.312 0-36.028 15.223t-14.716 37.55v456.69h572.385z"  horiz-adv-x="1024" />

    
    <glyph glyph-name="0" unicode="&#58881;" d="M912.298 117.257l-66.355 115.21c-6.155 10.78-19.905 14.365-30.595 8.23-10.755-6.22-14.405-19.955-8.205-30.73l66.375-115.165c7.58-13.24 9.515-24.96 5.365-32.22-4.235-7.35-15.62-11.565-31.11-11.565L172.845 51.017c-15.442 0-26.74 4.19-31 11.565-4.192 7.35-2.21 19.23 5.525 32.69l337.404 585.643c15.377 26.602 35.58 26.74 50.8 0.38l164.18-284.939c6.135-10.73 19.845-14.362 30.62-8.205 10.71 6.2 14.385 19.952 8.185 30.662L574.374 703.8c-31.565 54.852-96.655 54.762-128.4-0.408L108.567 117.752c-16.212-28.115-18.195-55.67-5.57-77.65 12.467-21.62 37.922-34.045 69.847-34.045l674.928 0c32.445 0 57.265 12.085 69.915 34.045C930.313 61.947 928.378 89.392 912.298 117.257zM512.461 533.033c-12.535 0-22.68-10.102-22.68-22.682 0-12.515 10.145-22.68 22.68-22.68 12.513 0 22.612 10.165 22.612 22.68C535.074 522.931 524.974 533.033 512.461 533.033zM489.781 423.549l0-279.957c0-10.825 10.055-19.615 22.41-19.615 12.422 0 22.452 8.79 22.452 19.615L534.643 423.549c0 10.777-10.03 19.592-22.452 19.592C499.836 443.141 489.781 434.326 489.781 423.549z"  horiz-adv-x="1024" />

    
    <glyph glyph-name="xuanzhong" unicode="&#58912;" d="M61.592-86.639c0 300.273 0 600.543 0 900.816 300.271 0 600.543 0 900.816 0 0-300.273 0-600.543 0-900.816-300.273 0-600.544 0-900.816 0zM111.772-36.289c266.939 0 533.38 0 799.886 0 0 267.174 0 534.038 0 800.885-266.833 0-533.281 0-799.886 0 0-267.091 0-533.857 0-800.885zM802.83 535.267c-0.701-0.618-1.436-1.199-2.092-1.857-124.555-124.524-249.103-249.058-373.667-373.573-2.261-2.261-4.685-4.362-7.9-7.342-2.202 2.587-4.116 5.182-6.371 7.436-62.945 63.001-125.922 125.968-188.902 188.932-0.849 0.849-1.817 1.577-2.731 2.363 0 0.19 0 0.379 0 0.569 0.782 0.652 1.617 1.25 2.334 1.967 11.46 11.433 22.912 22.874 34.342 34.338 0.724 0.728 1.254 1.645 2.090 2.762 53.661-53.661 106.856-106.856 160.195-160.195 114.523 114.536 228.956 228.985 344.336 344.377 0.639-1.183 0.952-2.292 1.66-3.004 11.412-11.48 22.869-22.919 34.336-34.345 0.708-0.706 1.577-1.243 2.372-1.857-0.002-0.191-0.002-0.381-0.002-0.571z"  horiz-adv-x="1024" />

    
    <glyph glyph-name="quanjushezhi" unicode="&#58936;" d="M127.792013 768.221802l447.934892 0 0-255.959579L767.698125 512.262222l0-63.990407 63.989383 0L831.687508 576.251605 575.726905 832.211185 127.792013 832.211185c-35.18229 0-63.990407-28.807093-63.990407-63.990407l0-767.881808c0-35.18229 28.808116-63.989383 63.990407-63.989383l319.949986 0 0 63.989383L127.792013 0.33897 127.792013 768.221802zM643.717416 700.232314l125.292588-125.292588L643.717416 574.939727 643.717416 700.232314zM959.668321 154.752806l0 75.176167-66.113767 13.373589c-4.439102 16.749476-11.125385 32.558533-19.560498 47.240931l37.245276 56.178487-53.118801 53.120848-56.175417-37.247322c-14.685467 8.44023-30.43415 15.123442-47.244001 19.562545l-13.433964 66.113767-75.115791 0-13.433964-66.113767c-16.809851-4.439102-32.558533-11.122315-47.305399-19.562545l-56.116065 37.247322-53.122895-53.120848 37.249369-56.178487c-8.498558-14.682397-15.185864-30.491455-19.620873-47.240931l-66.059532-13.433964 0-75.115791 66.059532-13.433964c4.435009-16.809851 11.122315-32.618908 19.620873-47.240931l-37.249369-56.178487 53.122895-53.118801 56.116065 37.245276c14.745842-8.499581 30.495548-15.185864 47.305399-19.560498l13.433964-66.113767 75.115791 0 13.433964 66.113767c16.809851 4.374634 32.558533 11.06194 47.244001 19.560498l56.175417-37.245276 53.118801 53.118801-37.245276 56.178487c8.499581 14.622022 15.121396 30.43108 19.560498 47.240931L959.668321 154.752806zM703.644273 64.394868c-70.673619 0-127.917368 57.239656-127.917368 127.978766 0 70.676689 57.242725 127.97979 127.917368 127.97979 70.740134-0.063445 128.043235-57.366545 128.043235-127.97979C831.687508 121.6335 774.384407 64.394868 703.644273 64.394868z"  horiz-adv-x="1024" />

    
    <glyph glyph-name="qiehuanpingmu" unicode="&#58908;" d="M991.104 70.208 132.16 70.208 99.136 70.208 99.136 103.296 99.136 202.368 99.136 697.92 99.136 730.944 1024.128 730.944 1024.128 697.92 1024.128 202.368 1024.128 103.296 1024.128 70.208 991.104 70.208ZM132.16 697.92 132.16 202.368 991.104 202.368 991.104 697.92 132.16 697.92ZM33.024 169.344 0 169.344 0 797.056 0 830.08 33.024 830.08 925.056 830.08 925.056 797.056 33.024 797.056 33.024 169.344ZM858.944-61.888 264.32-61.888 264.32-28.864 858.944-28.864 858.944-61.888Z"  horiz-adv-x="1024" />

    
    <glyph glyph-name="plus-transfer" unicode="&#59172;" d="M862.938 488.986c2.381 2.381 4.16 5.146 5.402 8.077 0.013 0.038 0.038 0.064 0.051 0.090 0.525 1.242 0.87 2.522 1.19 3.814 0.090 0.358 0.243 0.691 0.307 1.062 0.32 1.626 0.499 3.277 0.499 4.928 0 0.038 0.013 0.077 0.013 0.128s0 0.090 0 0.128c-0.013 1.651-0.179 3.302-0.499 4.928-0.077 0.371-0.218 0.704-0.307 1.062-0.32 1.293-0.666 2.573-1.19 3.814-0.013 0.038-0.038 0.064-0.051 0.090-1.242 2.931-3.021 5.696-5.402 8.077v0l-235.328 235.341c-9.958 9.958-26.253 9.958-36.198 0-9.958-9.958-9.958-26.253 0-36.198l191.629-191.629h-603.866c-14.080 0-25.6-11.52-25.6-25.6s11.52-25.6 25.6-25.6h669.542l14.208 7.488zM161.062 279.014c-2.381-2.381-4.16-5.146-5.402-8.077-0.013-0.038-0.038-0.064-0.051-0.090-0.525-1.242-0.87-2.522-1.19-3.814-0.090-0.358-0.243-0.691-0.307-1.062-0.32-1.626-0.499-3.277-0.499-4.928 0-0.038-0.013-0.077-0.013-0.128s0-0.090 0-0.128c0.013-1.651 0.179-3.302 0.499-4.928 0.077-0.371 0.218-0.704 0.307-1.062 0.32-1.293 0.666-2.573 1.19-3.814 0.013-0.038 0.038-0.064 0.051-0.090 1.242-2.931 3.021-5.696 5.402-8.077v0l235.328-235.328c9.958-9.958 26.253-9.958 36.198 0 9.958 9.958 9.958 26.253 0 36.198l-191.616 191.616h603.853c14.080 0 25.6 11.52 25.6 25.6s-11.52 25.6-25.6 25.6l-669.542-0-14.208-7.488z"  horiz-adv-x="1024" />

    
    <glyph glyph-name="tishi" unicode="&#58885;" d="M873.894-128H150.267c-58.027 0-109.227 23.893-133.12 68.267-23.893 40.96-23.893 95.573 6.827 146.773L389.2 742.4c27.307 51.2 75.094 81.92 122.88 81.92s92.16-30.72 122.88-81.92l365.227-655.36c27.307-51.2 30.72-105.813 6.827-146.773C983.12-104.107 931.92-128 873.894-128zM512.08 766.293c-27.306 0-51.2-20.48-71.68-51.2L75.174 59.733c-17.067-34.133-20.48-64.853-6.827-88.746C82-52.907 112.72-66.56 150.267-66.56h723.627c37.546 0 68.266 13.653 81.92 37.547 13.653 23.893 10.24 58.026-6.827 88.746L583.76 715.093c-20.48 30.72-44.373 51.2-71.68 51.2zM477.947 554.667c0 20.48 17.067 34.133 34.133 34.133 20.48 0 34.134-17.067 34.134-34.133v-307.2c0-20.48-17.067-34.134-34.134-34.134-20.48 0-34.133 17.067-34.133 34.134v307.2z m85.333-464.214c-3.413-10.24-6.826-23.893-13.653-30.72-10.24-10.24-23.893-13.653-37.547-13.653-13.653 0-27.306 6.827-37.546 13.653-6.827 6.827-13.654 20.48-13.654 30.72v6.827c0 10.24 6.827 23.893 13.654 30.72 10.24 10.24 23.893 13.653 37.546 13.653 13.654 0 27.307-6.826 37.547-13.653 6.827-6.827 13.653-20.48 13.653-30.72v-6.827c0 3.414 0 3.414 0 0z"  horiz-adv-x="1024" />

    
    <glyph glyph-name="tishi1" unicode="&#58948;" d="M512-64A448 448 0 1 1 512 832a448 448 0 0 1 0-896z m0-64A512 512 0 1 0 512 896a512 512 0 0 0 0-1024zM480 576v-64h64V576zM480 448v-256h64V448z"  horiz-adv-x="1024" />

    
    <glyph glyph-name="quanjushezhi1" unicode="&#58972;" d="M82.342 813.168h501.209v-286.485h214.863v-71.621h71.621v143.243l-286.485 286.485h-501.209c-39.448 0-71.621-32.174-71.621-71.621v-859.314c0-39.308 32.174-71.621 71.621-71.621h358.106v71.621h-358.106v859.314zM659.649 737.071l140.165-140.165h-140.165v140.165zM1013.278 126.611v84.071l-73.999 14.968c-5.036 18.744-12.452 36.37-21.822 52.877l41.685 62.808-59.45 59.45-62.808-41.685c-16.367 9.513-33.993 16.924-52.877 21.962l-15.108 73.999h-84.071l-15.108-73.86c-18.744-5.036-36.37-12.452-52.877-21.962l-62.808 41.685-59.45-59.45 41.685-62.808c-9.513-16.367-16.924-34.132-21.962-52.877l-73.86-14.968v-84.21l73.86-14.968c4.895-18.744 12.452-36.51 21.962-52.877l-41.685-62.808 59.45-59.45 62.808 41.685c16.507-9.513 34.132-16.924 52.877-21.822l14.968-73.999h84.21l14.968 73.999c18.744 4.895 36.37 12.452 52.877 21.822l62.808-41.685 59.45 59.45-41.685 62.808c9.513 16.367 16.924 33.993 21.822 52.877l74.139 14.968zM726.793 25.475c-79.037 0-143.103 64.067-143.103 143.243 0 79.037 64.067 143.243 143.103 143.243 79.176-0.139 143.243-64.207 143.243-143.243 0-79.176-64.067-143.243-143.243-143.243z"  horiz-adv-x="1024" />

    
    <glyph glyph-name="ccgl-kuneizhuanyi-1" unicode="&#59109;" d="M923.76 507.37c3.983 4.006 6.829 9.146 8.011 14.893l-1.633-5.325c0.618 1.461 1.012 2.95 1.405 4.467 0.098 0.422 0.281 0.815 0.352 1.237 0.366 1.897 0.59 3.835 0.59 5.774l0.014 0.155v0.155c-0.025 2.168-0.261 4.267-0.689 6.293 0.001-0.083-0.154 0.309-0.252 0.717-0.757 3.291-1.984 6.195-3.626 8.813l2.165-4.247c-2.332 5.474-6.076 9.967-10.779 13.147l-271.066 271.831c-5.433 5.405-12.923 8.746-21.194 8.746s-15.76-3.34-21.195-8.747c-11.66-11.66-11.66-30.739 0.001-42.386l224.355-224.341h-706.995c-16.48 0-29.967-13.488-29.967-29.967s13.488-29.967 29.967-29.967h783.887l16.648 8.753zM102.010 261.534c-3.983-4.006-6.829-9.146-8.011-14.893l1.633 5.325c-0.604-1.461-1.012-2.95-1.391-4.453-0.098-0.422-0.281-0.815-0.352-1.251-0.374-1.764-0.589-3.79-0.591-5.868l-0.014-0.062v-0.141c0.014-1.939 0.211-3.863 0.59-5.774 0.098-0.436 0.267-0.829 0.366-1.251 0.38-1.503 0.787-3.007 1.391-4.453l0.056-0.113c1.461-3.428 3.526-6.673 6.322-9.456l275.509-275.509c11.662-11.662 30.74-11.662 42.387 0 11.662 11.647 11.662 30.74 0 42.387l-224.355 224.341h706.981c16.534 0.048 29.926 13.434 29.981 29.962-0.048 16.545-13.443 29.939-29.977 29.987h-783.892l-16.634-8.782z"  horiz-adv-x="1024" />

    
    <glyph glyph-name="yiwen" unicode="&#59397;" d="M512-36.352c-231.936 0-420.352 188.416-420.352 420.352S280.064 804.352 512 804.352s420.352-188.416 420.352-420.352-188.416-420.352-420.352-420.352z m0 888.32c-258.048 0-467.968-209.92-467.968-467.968 0-258.048 209.92-467.968 467.968-467.968 258.048 0 467.968 209.92 467.968 467.968 0 258.048-209.92 467.968-467.968 467.968zM485.888 212.48h50.688v-80.896h-50.688v80.896z m30.208 420.864c-20.992 0-40.96-3.072-59.392-9.728-18.944-6.656-35.84-16.384-51.2-30.208s-26.624-31.744-33.28-49.152c-7.168-17.408-10.752-28.16-11.776-78.848h52.736c0 70.656 33.792 117.248 101.376 117.248 30.72 0 53.76-6.656 69.632-23.04 15.872-16.384 23.552-34.304 23.552-55.296 0-20.992-4.608-36.352-14.336-46.592-9.216-10.24-25.088-26.112-47.104-48.64-22.016-22.528-35.84-39.424-41.472-51.2-6.144-11.776-11.264-26.112-15.36-41.472-4.096-15.36-6.144-32.768-6.144-62.976H537.6c-0.512 30.208 1.536 40.96 5.12 54.272 4.096 13.312 9.728 25.088 17.408 34.304 7.68 9.728 23.04 25.6 46.592 48.128s38.912 41.472 46.08 56.32c7.168 14.848 10.752 31.744 10.752 50.688 0 41.472-13.824 74.24-41.984 99.328-28.16 24.576-62.976 36.864-105.472 36.864z"  horiz-adv-x="1024" />

    
    <glyph glyph-name="head_set" unicode="&#58973;" d="M958.7 389.7c0 0.9 0 1.8-0.1 2.7 0 1 0 2-0.1 3 0 1.3-0.1 2.6-0.1 3.9 0 0.6 0 1.2-0.1 1.8-0.1 1.6-0.1 3.2-0.2 4.7v0.9c-0.1 1.8-0.2 3.5-0.3 5.3v0.3c-1.3 20.6-4 40.8-8 60.6-2.8 14-6.3 27.8-10.4 41.3-7.5-1.7-15.3-2.6-23.3-2.6-58.7 0-106.4 47.6-106.4 106.4 0 27.7 10.6 52.9 27.9 71.8-9.7 10.3-19.9 20.2-30.6 29.6-44.1 38.9-96 69.2-152.9 88.3-13.4 4.5-27.1 8.4-41 11.6-13.8-42.7-53.9-73.6-101.2-73.6-47.3 0-87.4 30.9-101.2 73.6-13.9-3.2-27.6-7.1-41-11.6-57-19.1-108.8-49.4-152.9-88.3-10.7-9.4-20.9-19.3-30.6-29.6 17.3-18.9 27.9-44.1 27.9-71.8 0-58.7-47.6-106.4-106.4-106.4-8 0-15.8 0.9-23.3 2.6-4.1-13.5-7.6-27.3-10.4-41.3-4-19.8-6.7-40-8-60.6v-0.3c-0.1-1.8-0.2-3.5-0.3-5.3v-0.9c-0.1-1.6-0.1-3.2-0.2-4.7 0-0.6 0-1.2-0.1-1.8 0-1.3-0.1-2.6-0.1-3.9 0-1 0-2-0.1-3 0-0.9 0-1.8-0.1-2.7v-13.8c0-1.1 0-2.2 0.1-3.3 0-1.1 0.1-2.1 0.1-3.2 0-0.8 0-1.6 0.1-2.5 0-1.3 0.1-2.5 0.2-3.8 0-0.6 0.1-1.3 0.1-1.9 0.1-1.4 0.2-2.8 0.2-4.2 0-0.5 0.1-1 0.1-1.5 0.1-1.5 0.2-3 0.3-4.6 0-0.3 0-0.7 0.1-1 0.1-1.6 0.3-3.2 0.4-4.8 0-0.3 0-0.5 0.1-0.8 0.1-1.7 0.3-3.4 0.5-5.1v-0.5c0.2-1.7 0.4-3.5 0.6-5.2v-0.3l0.6-5.4v-0.1c1.4-11 3.2-22 5.4-32.7 2.8-14 6.3-27.8 10.4-41.3 7.5 1.7 15.3 2.6 23.3 2.6 58.7 0 106.4-47.6 106.4-106.4 0-27.7-10.6-52.9-27.9-71.8 9.7-10.3 19.9-20.2 30.6-29.6 1.4-1.2 2.7-2.4 4.1-3.6l0.1-0.1c1.4-1.2 2.7-2.3 4.1-3.5 0.1 0 0.1-0.1 0.2-0.1 1.3-1.1 2.7-2.3 4.1-3.4l0.2-0.2c1.3-1.1 2.7-2.2 4.1-3.3 0.1-0.1 0.2-0.1 0.2-0.2 1.4-1.1 2.7-2.1 4.1-3.2 0.1-0.1 0.2-0.1 0.3-0.2 1.4-1.1 2.7-2.1 4.1-3.1 0.1-0.1 0.2-0.1 0.3-0.2 1.4-1 2.8-2.1 4.1-3.1 0.1-0.1 0.2-0.1 0.3-0.2l4.2-3c0.1-0.1 0.2-0.1 0.3-0.2l4.2-3c0.1-0.1 0.2-0.1 0.2-0.2 1.4-1 2.9-2 4.3-3 0.1 0 0.1-0.1 0.2-0.1 1.5-1 2.9-2 4.4-3 0.1 0 0.1-0.1 0.2-0.1l4.5-3s0.1 0 0.1-0.1c1.5-1 3.1-2 4.6-2.9 29.7-18.7 61.7-34 95.5-45.3 13.4-4.5 27.1-8.4 41-11.6 13.8 42.7 53.9 73.6 101.2 73.6 47.3 0 87.4-30.9 101.2-73.6 13.9 3.2 27.6 7.1 41 11.6 33.8 11.3 65.8 26.6 95.5 45.3 1.5 1 3.1 1.9 4.6 2.9 0 0 0.1 0 0.1 0.1 1.5 1 3 2 4.5 2.9 0.1 0 0.1 0.1 0.2 0.1 1.5 1 2.9 2 4.4 3 0.1 0 0.1 0.1 0.2 0.1 1.4 1 2.9 2 4.3 3 0.1 0.1 0.2 0.1 0.2 0.2l4.2 3c0.1 0.1 0.2 0.1 0.3 0.2l4.2 3c0.1 0.1 0.2 0.1 0.3 0.2 1.4 1 2.8 2 4.1 3.1 0.1 0.1 0.2 0.1 0.3 0.2 1.4 1 2.7 2.1 4.1 3.1 0.1 0.1 0.2 0.1 0.3 0.2 1.4 1.1 2.7 2.1 4.1 3.2 0.1 0.1 0.2 0.1 0.2 0.2 1.4 1.1 2.7 2.2 4.1 3.3l0.2 0.2c1.4 1.1 2.7 2.2 4.1 3.4 0.1 0 0.1 0.1 0.2 0.1 1.4 1.1 2.7 2.3 4.1 3.5 0 0 0.1 0 0.1 0.1 1.4 1.2 2.8 2.4 4.1 3.6 10.7 9.4 20.9 19.3 30.6 29.6-17.3 18.9-27.9 44.1-27.9 71.8 0 58.7 47.6 106.4 106.4 106.4 8 0 15.8-0.9 23.3-2.6 4.1 13.5 7.6 27.3 10.4 41.3 2.2 10.8 4 21.7 5.4 32.7v0.1l0.6 5.4v0.3c0.2 1.7 0.4 3.5 0.6 5.2v0.5c0.2 1.7 0.3 3.4 0.5 5.1 0 0.3 0 0.5 0.1 0.8 0.1 1.6 0.3 3.2 0.4 4.8 0 0.3 0 0.7 0.1 1 0.1 1.5 0.2 3 0.3 4.6 0 0.5 0.1 1 0.1 1.5 0.1 1.4 0.2 2.8 0.2 4.2 0 0.6 0.1 1.3 0.1 1.9 0.1 1.3 0.1 2.5 0.2 3.8 0 0.8 0.1 1.6 0.1 2.5 0 1.1 0.1 2.1 0.1 3.2s0 2.2 0.1 3.3v8.1c-0.2 2-0.2 3.9-0.2 5.8zM907.1 298.6c-78-4.7-139.9-69.4-139.9-148.6 0-23.7 5.6-46.2 15.5-66.1-42-37.9-92-67.1-147.1-84.8-26.7 39.7-72.1 65.8-123.6 65.8s-96.9-26.1-123.6-65.8c-55.2 17.7-105.1 46.9-147.1 84.8 9.9 19.9 15.5 42.4 15.5 66.1 0 79.2-61.8 144-139.9 148.6-5.9 27.5-9 56.1-9 85.4 0 29.3 3.1 57.9 9.1 85.4 78 4.7 139.9 69.4 139.9 148.6 0 23.7-5.6 46.2-15.5 66.1 42 37.9 92 67.1 147.1 84.8 26.7-39.7 72.1-65.8 123.6-65.8s96.9 26.1 123.6 65.8c55.2-17.7 105.1-46.9 147.1-84.8-9.9-19.9-15.4-42.4-15.4-66.1 0-79.2 61.8-144 139.9-148.6 5.9-27.5 9.1-56.1 9.1-85.4-0.3-29.4-3.4-57.9-9.3-85.4zM511.9 532.9c-82.2 0-148.9-66.7-148.9-148.9s66.7-149 148.9-149 148.9 66.7 148.9 148.9-66.6 149-148.9 149zM511.9 277.6c-58.7 0-106.4 47.6-106.4 106.4 0 58.7 47.6 106.4 106.4 106.4 58.7 0 106.4-47.6 106.4-106.4 0-58.8-47.6-106.4-106.4-106.4z"  horiz-adv-x="1024" />

    
    <glyph glyph-name="tishi2" unicode="&#58886;" d="M512-62.709C265.687-62.709 65.291 137.687 65.291 384S265.686 830.71 512 830.71 958.709 630.314 958.709 384 758.313-62.709 512-62.709z m0 829.185c-210.893 0-382.476-171.583-382.476-382.476S301.107 1.525 512 1.525s382.476 171.583 382.476 382.476S722.892 766.476 512 766.476zM612.659 247.833l-2.447 3.53-7.681 3.422H599c-4.104 0-8.595-1.084-22.64-7.975l-22.5-15.19c-6.164-3.902-12.993-7.186-20.348-9.757-7.742-2.74-15.919-4.909-24.266-6.441-5.775-1.069-10.39-1.828-15.392-1.564-6.984 0.836-8.951 3.577-9.663 4.599-2.091 2.926-2.819 8.408-2.076 15.454 1.1 10.329 4.042 24.498 8.734 42.12 4.831 18.04 9.54 33.712 14.045 46.967 4.522 13.24 9.848 27.068 15.997 41.578 6.054 14.34 10.917 24.73 14.448 30.924 3.236 5.73 8.098 12.078 14.494 18.97 6.055 6.613 20.239 22.097 12.062 36.98-4.444 8.02-12.249 12.837-24.498 13.611-5.977 0-12.59-1.3-20.192-3.949-7.929-2.772-12.962-4.878-14.928-5.992-2.029-1.1-5.172-3.128-19.032-14.479-13.766-11.227-17.653-15.733-19.698-19.65-1.997-3.779-3.545-9.106-4.691-22.795-0.434-5.095-2.385-15.238-9.431-35.151l-19.96-63.94-16.075-44.117c-4.15-15.067-5.714-28.122-4.785-39.86 0.867-11.413 3.16-22.067 6.813-31.621 4.026-10.608 9.616-19.264 16.585-25.706 7.634-7.092 17.065-11.506 27.47-13.007 2.834-0.51 5.962-0.79 9.37-0.79 8.562 0 18.535 1.72 30.521 5.28 14.866 4.43 27.13 8.889 37.429 13.612 10.344 4.661 20.069 10.097 28.973 16.151a759.806 759.806 0 0 1 24.977 17.948c10.98 8.254 17.933 16.708 21.324 25.938 2.851 7.928 6.088 16.94 0.59 24.9zM483.836 519.775c5.162-4.316 11.573-6.676 19.228-7.12 8.993-0.891 21.502 4.494 37.481 16.202 15.936 11.707 24.396 21.01 25.286 28 0.89 6.988-1.47 17.76-7.078 32.405-5.652 14.6-10.906 23.95-15.847 28-4.985 4.05-10.816 6.277-17.538 6.722-13.087 0.445-24.751-5.521-35.122-17.85-10.328-12.376-16.96-22.302-19.898-29.692-2.938-7.433-4.363-12.731-4.363-15.847-0.445-5.43 1.113-12.508 4.72-21.277 3.603-8.768 7.966-15.313 13.13-19.543z"  horiz-adv-x="1024" />

    
    <glyph glyph-name="lianjie" unicode="&#59498;" d="M576 812.8L390.4 627.2C288 524.8 281.6 358.4 384 256c25.6-25.6 57.6-44.8 89.6-57.6 12.8-6.4 25.6 0 32 12.8 6.4 12.8 0 25.6-12.8 32-25.6 12.8-51.2 25.6-76.8 44.8-83.2 83.2-76.8 224 6.4 307.2l185.6 185.6C697.6 870.4 832 870.4 915.2 787.2s83.2-224-6.4-307.2l-115.2-115.2c-6.4-6.4-6.4-25.6 0-32 6.4-6.4 25.6-6.4 32 0L940.8 448c102.4 102.4 108.8 268.8 6.4 371.2S684.8 921.6 576 812.8zM544 569.6c-6.4 6.4-19.2 0-25.6-12.8-6.4-12.8 0-25.6 12.8-32 25.6-12.8 51.2-25.6 76.8-44.8 83.2-83.2 83.2-224-6.4-307.2l-185.6-185.6c-89.6-89.6-224-89.6-307.2-6.4s-83.2 224 6.4 307.2l115.2 115.2c6.4 6.4 6.4 25.6 0 32s-25.6 6.4-32 0L83.2 320c-102.4-102.4-108.8-268.8-6.4-371.2s268.8-96 371.2 6.4l185.6 185.6c102.4 102.4 108.8 268.8 6.4 371.2-25.6 25.6-57.6 44.8-96 57.6z"  horiz-adv-x="1024" />

    
    <glyph glyph-name="guanji" unicode="&#58970;" d="M757.695 687.753a32.015 32.015 0 1 1-37.876-51.627c90.315-66.252 144.192-172.255 144.192-283.571 0-194.068-157.942-352.011-352.011-352.011S159.989 158.487 159.989 352.556c0 123.5 63.314 235.82 169.255 300.447a31.975 31.975 0 1 1-33.251 54.627C170.74 631.314 95.987 498.623 95.987 352.556c0-229.382 186.631-416.013 416.013-416.013s416.013 186.631 416.013 416.013c0 131.566-63.69 256.883-170.318 335.197zM511.98 255.408a32.093 32.093 0 0 1 32 32V799.425a32 32 0 1 1-64 0v-512.016a32.1 32.1 0 0 1 32-32.001z"  horiz-adv-x="1024" />

    
    <glyph glyph-name="yiwen1" unicode="&#58888;" d="M512 896a512 512 0 1 1 512-512A512 512 0 0 1 512 896z m0-950.857143a438.857143 438.857143 0 1 0 438.857143 438.857143 438.857143 438.857143 0 0 0-438.857143-438.857143z m-54.857143 142.994286h81.92v81.92H457.142857z m41.691429 596.48a176.274286 176.274286 0 0 1-189.805715-169.325714l73.142858-8.777143a151.405714 151.405714 0 0 0 40.228571 89.965714 109.714286 109.714286 0 0 0 76.8 28.891429 109.714286 109.714286 0 0 0 80.457143-31.817143 99.84 99.84 0 0 0 32.914286-73.142857 84.845714 84.845714 0 0 0-9.142858-44.982858 245.76 245.76 0 0 0-48.64-52.662857 548.571429 548.571429 0 0 1-51.931428-50.102857 165.302857 165.302857 0 0 1-28.16-46.811428 200.777143 200.777143 0 0 1-12.068572-73.142858v-21.577142h67.657143a284.16 284.16 0 0 0 6.217143 62.537142 101.668571 101.668571 0 0 0 16.091429 34.011429 363.52 363.52 0 0 0 46.08 46.08 334.262857 334.262857 0 0 1 70.582857 78.994286 142.994286 142.994286 0 0 1 17.92 70.948571 146.285714 146.285714 0 0 1-51.2 113.005714 195.291429 195.291429 0 0 1-137.142857 47.908572z"  horiz-adv-x="1024" />

    
    <glyph glyph-name="fuwu2" unicode="&#58644;" d="M861.06125656 539.3493928099999H832.43714375c-2.54899219 35.10260063-10.83681281 69.20076187-24.75121875 101.65076063-16.39528406 38.23775438-39.85713656 72.56903813-69.73224187 102.03929812-29.85112125 29.446275-64.61123344 52.56468094-103.31427282 68.71437094-40.05955969 16.7147475-82.59424125 25.19060062-126.42212531 25.19060156-43.8384375 0-86.38175344-8.47489406-126.44706937-25.18964156-38.70879563-16.14873094-73.47274594-39.26809594-103.32770344-68.71437188-29.8779825-29.4693-53.34175406-63.80058281-69.73799813-102.03929718-13.91440594-32.44903969-22.20222656-66.54720094-24.75121875-101.65076063h-11.88346312c-42.52316906 0-77.11827375-33.07741312-77.11827375-73.73656687v-274.05834844c0-40.65915281 34.59510469-73.73656687 77.11827375-73.73656688h86.39614406c42.54907219 0 77.16528188 33.07741312 77.16528187 73.73656688v274.05738937c0 40.65819375-34.61621063 73.73656687-77.16528187 73.73656594h-26.36868188c12.102195 139.6352475 131.30905219 249.62755219 276.11999063 249.62755313 144.78791344 0 263.97654375-109.99134562 276.07681969-249.62755313H774.66511344c-42.54907219 0-77.16528188-33.07741312-77.16528188-73.73656594v-274.05834843c0-40.65915281 34.61621063-73.73656687 77.16528188-73.73656688h18.18063281c-5.06152875-47.77081125-26.99034094-82.95591563-65.38255031-104.72451656-12.64710563-7.17113812-25.42372313-11.91799969-36.49653563-15.05507344a66.99138 66.99138 0 0 1-4.38806437 9.8793825l-0.05180532 0.09593438c-12.4888125 22.65216188-36.92056781 36.72390094-63.76125 36.72390187h-51.32807906c-39.68829094 0-71.97616031-30.81238875-71.97616031-68.68751062s32.28786844-68.68750969 71.97616031-68.68750969h51.32807906c29.24001563 0 54.44500594 16.73393438 65.69913657 40.68505594 16.6255275 3.49299187 38.65890938 10.03863375 60.80357531 22.278975 38.76731531 21.42899156 84.75853406 64.18432313 91.77617531 147.48944156h20.01682875c42.49822594 0 77.07222469 33.07741312 77.07222469 73.73656687V465.61282687c0 40.65915281-34.57399875 73.73656687-77.07222469 73.73656594z m-573.39747656-73.73656594v-274.05834843c0-14.20988531-13.098-25.76908875-29.19780375-25.76908875h-86.39614406c-16.07390156 0-29.15079563 11.5601625-29.15079563 25.76908875V465.61282687c0 14.20892625 13.07689406 25.76908875 29.15079563 25.76908782h86.39614406c16.09980469 0 29.19780375-11.5601625 29.19780375-25.76908782z m335.10272063-510.28186968h-51.32808001c-13.23902437 0-24.00868219 9.29417813-24.00868218 20.7200325s10.77061781 20.72003156 24.00868218 20.72003156h51.32808c9.20495906 0 17.72686125-4.6566825 21.72734813-11.86811344 1.51385344-2.79266625 2.28133313-5.77048781 2.28133406-8.85191812 0-11.42585344-10.76965781-20.72003156-24.00868219-20.7200325z m267.39950249 236.22352125c0-14.20988531-13.05578812-25.76908875-29.10474656-25.76908875H774.66511344c-16.09884469 0-29.19780375 11.5601625-29.19780469 25.76908875V465.61282687c0 14.20892625 13.098 25.76908875 29.19780469 25.76908782h86.39614312c16.04895844 0 29.10474656-11.5601625 29.10474656-25.76908782v-274.05834843z"  horiz-adv-x="1024" />

    
    <glyph glyph-name="guanji1" unicode="&#58884;" d="M768 705.536c-7.168 6.144-17.408 11.264-27.648 11.264-22.528 0-39.936-18.432-40.96-40.96 0-18.432 10.24-28.672 10.24-28.672C788.48 587.776 839.68 493.568 839.68 388.096c0-180.224-147.456-327.68-327.68-327.68s-327.68 147.456-327.68 327.68c0 106.496 51.2 199.68 130.048 259.072 7.168 7.168 12.288 17.408 12.288 28.672 0 22.528-18.432 40.96-40.96 40.96-18.432 0-28.672-11.264-28.672-11.264-93.184-74.752-153.6-188.416-153.6-317.44 0-226.304 183.296-409.6 409.6-409.6 225.28 0 409.6 183.296 409.6 409.6C921.6 516.096 860.16 629.76 768 705.536zM512 342.016c22.528 0 40.96 18.432 40.96 40.96V747.52c0 22.528-18.432 40.96-40.96 40.96s-40.96-18.432-40.96-40.96v-365.568c0-21.504 18.432-39.936 40.96-39.936z"  horiz-adv-x="1024" />

    
    <glyph glyph-name="shubiao1" unicode="&#58892;" d="M630.784 551.936l-69.632-69.632c-12.288-12.288-12.288-32.768 0-49.152 8.192-8.192 16.384-8.192 24.576-8.192s16.384 4.096 24.576 8.192l69.632 69.632c12.288 12.288 12.288 32.768 0 49.152-12.288 12.288-32.768 12.288-49.152 0zM872.448 683.008c77.824 24.576 143.36 102.4 151.552 176.128 0 20.48-12.288 36.864-28.672 36.864-20.48 0-36.864-12.288-36.864-28.672-4.096-40.96-49.152-98.304-106.496-118.784-53.248-16.384-86.016-49.152-102.4-77.824C696.32 711.68 630.784 732.16 561.152 732.16c-86.016 0-167.936-32.768-225.28-90.112l-237.568-233.472C36.864 351.232 4.096 269.312 4.096 187.392c0-81.92 32.768-163.84 94.208-221.184 61.44-57.344 139.264-90.112 225.28-90.112s167.936 32.768 225.28 90.112l237.568 233.472c61.44 57.344 94.208 139.264 94.208 221.184 0 77.824-28.672 147.456-77.824 204.8 4.096 16.384 24.576 40.96 69.632 57.344z m-376.832-671.744c-49.152-45.056-110.592-73.728-176.128-73.728-65.536 0-131.072 24.576-176.128 73.728-49.152 45.056-73.728 106.496-73.728 176.128 0 65.536 24.576 126.976 73.728 176.128l172.032 167.936c36.864-69.632 90.112-139.264 151.552-200.704 61.44-61.44 131.072-110.592 204.8-147.456l-176.128-172.032z m237.568 233.472l-16.384-16.384c-73.728 36.864-143.36 86.016-204.8 147.456s-114.688 131.072-147.456 204.8l16.384 16.384c49.152 45.056 110.592 73.728 176.128 73.728 65.536 0 131.072-24.576 176.128-73.728 98.304-102.4 98.304-258.048 0-352.256z"  horiz-adv-x="1024" />

    
    <glyph glyph-name="fullscreen" unicode="&#58921;" d="M173.336 768H288a32 32 0 0 1 0 64H96a32 32 0 0 1-32-32v-192h0.16A32 32 0 1 1 128 611.172V722.8240000000001l262.196-262.196a32 32 0 1 1 45.256 45.256L173.332 768zM960 800a32 32 0 0 1-32 32h-192a32 32 0 0 1 0-64h114.668l-262.12-262.12a32 32 0 1 1 45.256-45.252L896 722.8240000000001v-111.652a32 32 0 1 1 63.84-3.172h0.16V800z m-0.16-640a32 32 0 1 1-63.84-3.172v-111.652l-262.196 262.196a32 32 0 1 1-45.256-45.256L850.668 0H736a32 32 0 0 1 0-64h192a32 32 0 0 1 32 32v192h-0.16zM390.2 307.37199999999996L128 45.176000000000045v111.652A32 32 0 1 1 64.16 160H64v-192a32 32 0 0 1 32-32h192a32 32 0 0 1 0 64H173.336l262.116 262.12a32 32 0 1 1-45.256 45.252z"  horiz-adv-x="1024" />

    
    <glyph glyph-name="tishi3" unicode="&#59053;" d="M512.001023-128c-282.770202 0-512 229.229798-512 512S229.230822 896 512.001023 896s512-229.229798 512-512-229.230822-512-512-512z m0 85.333504c235.641835 0 426.666496 191.025685 426.666496 426.666496S747.641835 810.666496 512.001023 810.666496 85.333504 619.641835 85.333504 384s191.025685-426.666496 426.667519-426.666496z m15.274892 125.688607c-34.486442-0.002047-54.102199 13.864776-64.962547 27.061332-15.733333 19.120476-17.86795 50.03251-7.368828 106.699114 7.372921 39.794331 19.790742 85.981257 31.79924 130.647549 11.091616 41.257659 21.568225 80.227206 25.175379 104.274902 0.826831 5.514597 0.346901 9.207709-0.554632 10.005888-2.929726 2.593058-14.204513 6.444782-37.870516 4.445242-19.015076-1.607614-35.531238-6.152117-35.69599-6.197142-16.651238-4.682649-33.918507 5.024433-38.60218 21.674648-4.682649 16.649192 5.042853 33.949206 21.692045 38.632879 0.865717 0.243547 21.48943 5.989411 46.139853 8.197706 38.157042 3.416819 67.00609-3.235694 85.759199-19.774369 12.494569-11.019984 26.291806-31.463596 21.069875-66.275449-4.136204-27.574009-15.062044-68.216661-26.63052-111.243617-10.819416-40.24254-22.0062-81.855286-29.121248-117.592208-8.854669-44.480051-7.211239-60.317761-6.246261-64.776306 4.380774-3.124154 15.768125-4.592598 33.305547-1.26276 19.029402 3.612271 35.597753 10.929934 35.760458 11.002588 15.771195 7.097652 34.311457 0.065492 41.409109-15.70775 7.097652-15.772218 0.065492-34.311457-15.707751-41.408085-0.936325-0.421602-23.251563-10.383488-49.779753-15.420201-10.898211-2.071172-20.727067-2.982938-29.570479-2.983961z m46.930869 513.189082c-34.536584 0-62.634526 28.095895-62.634526 62.632479s28.097942 62.632479 62.634526 62.632479c34.535561 0 62.631456-28.096918 62.631456-62.632479s-28.095895-62.632479-62.631456-62.632479z"  horiz-adv-x="1024" />

    
    <glyph glyph-name="_qiehuanpingmu" unicode="&#58889;" d="M157.3 645.3c0 10.3 8.4 18.7 18.7 18.7h728v56H176c-41.2 0-74.7-33.4-74.7-74.7v-522.7H64V48h485.3v74.7h-392V645.3zM922.7 570.7H661.3c-20.6 0-37.3-16.7-37.3-37.3v-448c0-20.6 16.7-37.3 37.3-37.3h261.3c20.6 0 37.3 16.7 37.3 37.3v448c0.1 20.6-16.6 37.3-37.2 37.3zM792 66.70000000000005c-20.6 0-37.3 16.7-37.3 37.3 0 20.6 16.7 37.3 37.3 37.3s37.3-16.7 37.3-37.3c0-20.6-16.7-37.3-37.3-37.3zM904 160H680V514.7h224V160z"  horiz-adv-x="1024" />

    
    <glyph glyph-name="yonghu1" unicode="&#58991;" d="M985.882682-90.34316c-8.493255 204.963725-147.045868 376.261417-335.330069 433.769961 92.095533 49.424603 154.720496 146.636554 154.720496 258.583792 0 161.98581-131.287299 293.273109-293.273109 293.273108S218.726891 763.894074 218.726891 601.908264c0-111.844909 62.624963-209.05686 154.720496-258.583791-188.284201-57.406216-326.836814-228.806236-335.330069-433.769961-0.306985-6.651344 2.762866-36.838213 28.447287-36.838213 25.582093 0 30.698511 31.107825 31.005496 36.940541 10.130509 220.312981 193.809933 396.420106 416.476466 395.089837 223.689817-1.330269 403.378435-177.744379 412.48566-400.410912 0.306985-6.549016 2.865194-31.517138 29.572899-31.517138s30.084541 30.186869 29.777556 36.838213zM275.519137 603.340861c0.511642 130.161687 107.444789 235.866893 237.606475 235.048267 131.184971-0.818627 235.866893-107.34246 235.252923-239.448387-0.61397-128.626761-107.649445-234.127311-236.992505-233.615669-131.287299 0.61397-236.378535 106.626162-235.866893 238.015789z"  horiz-adv-x="1024" />

    
    <glyph glyph-name="xiaoxi" unicode="&#58907;" d="M868.87601757-56.56671174999997l-168.68545328 127.01022202H112.76828194c-37.70616007 0-67.47418073 29.76802064-67.47418216 67.47418218V620.15963402c0 37.70616007 29.76802064 67.47418073 67.47418216 67.4741807H944.28833772c37.70616007 0 67.47418073-29.76802064 67.47418071-67.4741807v-480.25740745c0-37.70616007-29.76802064-67.47418073-67.47418071-67.47418071h-71.44325045l-3.9690697-128.99475761zM112.76828194 647.94312052c-15.87627739 0-27.78348653-11.90720915-27.78348651-27.7834865v-480.25740745c0-15.87627739 11.90720915-27.78348653 27.78348651-27.78348653h601.31402561l117.08754994-89.3040634 1.98453413 89.3040634h109.14941198c15.87627739 0 27.78348653 11.90720915 27.78348651 27.78348653V620.15963402c0 15.87627739-11.90720915 27.78348653-27.78348651 27.7834865H112.76828194zM261.60838666 270.88151978999997c-57.55150717 0-103.19580668 45.6442995-103.19580667 103.19580666s45.6442995 103.19580668 103.19580667 103.19580667 103.19580668-45.6442995 103.19580667-103.19580667-45.6442995-103.19580668-103.19580667-103.19580666z m0 166.70091766c-35.72162595 0-63.50511101-27.78348653-63.505111-63.505111s27.78348653-63.50511101 63.505111-63.50511248 63.50511101 27.78348653 63.50511248 63.50511248-27.78348653 63.50511101-63.50511248 63.505111zM525.55150718 270.88151978999997c-57.55150717 0-103.19580668 45.6442995-103.19580668 103.19580666s45.6442995 103.19580668 103.19580668 103.19580667 103.19580668-45.6442995 103.19580668-103.19580667-45.6442995-103.19580668-103.19580668-103.19580666z m0 166.70091766c-35.72162595 0-63.50511101-27.78348653-63.50511102-63.505111s27.78348653-63.50511101 63.50511102-63.50511248 63.50511101 27.78348653 63.5051125 63.50511248-27.78348653 63.50511101-63.5051125 63.505111zM791.4791633 270.88151978999997c-57.55150717 0-103.19580668 45.6442995-103.19580668 103.19580666s45.6442995 103.19580668 103.19580668 103.19580667 103.19580668-45.6442995 103.19580667-103.19580667-47.62883362-103.19580668-103.19580667-103.19580666z m0 166.70091766c-35.72162595 0-63.50511101-27.78348653-63.50511248-63.505111s27.78348653-63.50511101 63.50511248-63.50511248 63.50511101 27.78348653 63.50511099 63.50511248-29.76802064 63.50511101-63.50511099 63.505111z"  horiz-adv-x="1050" />

    
    <glyph glyph-name="shubiao2" unicode="&#59254;" d="M575.151169 657.249838h-34.380973V663.402966c0 22.386825 11.179598 42.948075 29.943926 55.082416 35.278411 22.751121 56.346197 61.402342 56.346197 103.367022V858.592093h-57.52709v-36.739689c0-22.330543-11.234856-42.919423-29.998161-55.025111-35.280457-22.780797-56.305264-61.430995-56.305264-103.423304v-6.153128H448.821202c-123.759428 0-224.458696-100.698245-224.458697-224.457672v-235.751881c0-158.590654 129.0407-287.633401 287.643635-287.633401 158.590654 0 287.630331 129.042747 287.630331 287.633401V432.792165c0 123.759428-100.726898 224.457673-224.485302 224.457673z m166.962306-460.209553c0-126.878459-103.258552-230.106312-230.107335-230.106312-126.891762 0-230.119615 103.227853-230.119615 230.106312V432.792165c0 92.047232 74.886421 166.93263 166.934677 166.93263h126.329967c92.075884 0 166.962306-74.885398 166.962306-166.93263v-235.75188zM483.22878 513.434672h57.541416v-172.578198h-57.541416z"  horiz-adv-x="1024" />

    
    <glyph glyph-name="xuankuang" unicode="&#58632;" d="M930.816 896H93.184C41.984 896 0 854.016 0 802.816v-837.632c0-51.2 41.984-93.184 93.184-93.184h837.632c51.2 0 93.184 41.984 93.184 93.184V802.816c0 51.2-41.984 93.184-93.184 93.184z m46.592-930.816c0-25.6-20.992-46.592-46.592-46.592H93.184c-25.6 0-46.592 20.992-46.592 46.592V802.816c0 25.6 20.992 46.592 46.592 46.592h837.632c25.6 0 46.592-20.992 46.592-46.592v-837.632z"  horiz-adv-x="1024" />

    
    <glyph glyph-name="xuankuang1" unicode="&#58960;" d="M896 832a64 64 0 0 0 64-64v-768a64 64 0 0 0-64-64H128a64 64 0 0 0-64 64V768a64 64 0 0 0 64 64h768m0 64H128a128 128 0 0 1-128-128v-768a128 128 0 0 1 128-128h768a128 128 0 0 1 128 128V768a128 128 0 0 1-128 128z"  horiz-adv-x="1024" />

    
    <glyph glyph-name="fuwu" unicode="&#58893;" d="M861.061 539.35h-28.624c-2.549 35.102-10.837 69.2-24.751 101.65-16.395 38.238-39.857 72.57-69.732 102.04-29.851 29.446-64.612 52.564-103.315 68.714-40.06 16.715-82.594 25.19-126.422 25.19-43.838 0-86.381-8.474-126.447-25.19-38.709-16.148-73.473-39.267-103.327-68.714-29.878-29.469-53.342-63.8-69.738-102.039-13.915-32.449-22.203-66.547-24.752-101.65H172.07c-42.523 0-77.118-33.078-77.118-73.737v-274.059c0-40.659 34.595-73.736 77.118-73.736h86.396c42.549 0 77.165 33.077 77.165 73.736V465.613c0 40.658-34.616 73.736-77.165 73.736h-26.369c12.102 139.636 131.31 249.628 276.12 249.628 144.788 0 263.977-109.991 276.077-249.628h-9.629c-42.549 0-77.165-33.077-77.165-73.736v-274.059c0-40.659 34.616-73.736 77.165-73.736h18.18c-5.06-47.77-26.99-82.956-65.382-104.725-12.647-7.17-25.424-11.918-36.496-15.055a66.991 66.991 0 0 1-4.388 9.88l-0.052 0.096c-12.489 22.652-36.92 36.724-63.761 36.724h-51.329c-39.688 0-71.976-30.813-71.976-68.688s32.288-68.687 71.976-68.687h51.329c29.24 0 54.445 16.733 65.699 40.685 16.625 3.493 38.659 10.038 60.803 22.279 38.768 21.429 84.759 64.184 91.776 147.489h20.017c42.498 0 77.072 33.077 77.072 73.737v274.06c0 40.659-34.574 73.736-77.072 73.736z m-573.397-73.737v-274.059c0-14.21-13.098-25.769-29.198-25.769H172.07c-16.074 0-29.151 11.56-29.151 25.77V465.612c0 14.209 13.077 25.769 29.15 25.769h86.397c16.1 0 29.198-11.56 29.198-25.77zM622.767-44.67h-51.329c-13.239 0-24.008 9.294-24.008 20.72s10.77 20.72 24.008 20.72h51.329c9.204 0 17.726-4.657 21.727-11.868 1.514-2.793 2.281-5.77 2.281-8.852 0-11.426-10.77-20.72-24.008-20.72z m267.399 236.223c0-14.21-13.056-25.769-29.105-25.769h-86.396c-16.099 0-29.198 11.56-29.198 25.77V465.612c0 14.209 13.098 25.769 29.198 25.769h86.396c16.05 0 29.105-11.56 29.105-25.77v-274.058z"  horiz-adv-x="1024" />

    
    <glyph glyph-name="yonghuguanli" unicode="&#58906;" d="M513.151461 390.687403c56.379066 5.637907 112.758131 28.189533 152.223477 73.292785 50.741159 45.103252 73.292785 112.758131 73.292785 180.41301 0 67.654879-28.189533 129.671851-73.292785 180.413009C563.89262 920.650619 406.031236 920.650619 304.548919 819.168301 208.704507 723.323889 208.704507 559.824599 304.548919 463.980188c16.91372-16.91372 28.189533-28.189533 45.103252-33.827439-78.930692-22.551626-146.58557-62.016972-208.602543-124.033944-90.206505-90.206505-140.947664-208.602542-140.947663-338.274394 0-16.91372 11.275813-28.189533 28.189532-28.189532s28.189533 11.275813 28.189533 28.189532c0 112.758131 45.103252 219.878356 124.033944 298.809048 84.568598 84.568598 191.688823 124.033944 310.084861 124.033944h22.551626zM344.014264 779.702955c39.465346 39.465346 90.206505 56.379066 140.947664 56.379066 50.741159 0 101.482318-16.91372 140.947664-56.379066s56.379066-84.568598 56.379066-140.947664c0-50.741159-22.551626-101.482318-56.379066-140.947664-78.930692-78.930692-202.964636-78.930692-281.895328 0-73.292785 84.568598-73.292785 208.602542 0 281.895328zM975.459798 238.463926h-22.551626l16.91372 16.91372c22.551626 22.551626 22.551626 56.379066 0 78.930691l-39.465346 39.465346c-22.551626 22.551626-56.379066 22.551626-78.930692 0l-16.91372-16.913719v22.551626c0 33.827439-22.551626 56.379066-56.379065 56.379065h-56.379066c-33.827439 0-56.379066-22.551626-56.379065-56.379065v-22.551626l-16.91372 16.913719c-22.551626 22.551626-56.379066 22.551626-78.930691 0l-39.465346-39.465346c-22.551626-22.551626-22.551626-56.379066 0-78.930691l16.913719-16.91372h-22.551626c-33.827439 0-56.379066-22.551626-56.379065-56.379066v-56.379065c0-33.827439 22.551626-56.379066 56.379065-56.379066h22.551626l-16.913719-16.913719c-22.551626-22.551626-22.551626-56.379066 0-78.930692l39.465346-39.465346c22.551626-22.551626 56.379066-22.551626 78.930691 0l16.91372 16.91372v-22.551626c0-33.827439 22.551626-56.379066 56.379065-56.379066h56.379066c33.827439 0 56.379066 22.551626 56.379065 56.379066v22.551626l16.91372-16.91372c22.551626-22.551626 56.379066-22.551626 78.930692 0l39.465346 39.465346c22.551626 22.551626 22.551626 56.379066 0 78.930692l-16.91372 16.913719h22.551626c33.827439 0 56.379066 22.551626 56.379066 56.379066v56.379065c0 33.827439-28.189533 56.379066-56.379066 56.379066z m0-112.758131h-22.551626c-22.551626 0-45.103252-11.275813-50.741159-33.827439-11.275813-22.551626-5.637907-45.103252 11.275813-62.016973l16.91372-16.913719-39.465346-39.465346-16.91372 16.91372c-16.91372 16.91372-39.465346 22.551626-62.016972 11.275813-22.551626-11.275813-33.827439-28.189533-33.827439-50.741159v-22.551626h-56.379066v22.551626c0 22.551626-11.275813 45.103252-33.827439 50.741159-5.637907 5.637907-16.91372 5.637907-22.551626 5.637906-16.91372 0-28.189533-5.637907-39.465346-16.913719l-16.91372-16.91372-39.465345 39.465346 16.913719 16.913719c16.91372 16.91372 22.551626 39.465346 11.275813 62.016973s-28.189533 33.827439-50.741159 33.827439h-22.551626v56.379065h22.551626c22.551626 0 45.103252 11.275813 50.741159 33.82744 11.275813 22.551626 5.637907 45.103252-11.275813 62.016972l-16.913719 16.913719 39.465345 39.465346 16.91372-16.913719c16.91372-16.91372 39.465346-22.551626 62.016972-11.275813 22.551626 11.275813 33.827439 28.189533 33.827439 50.741159v22.551626h56.379066v-22.551626c0-22.551626 11.275813-45.103252 33.827439-50.741159 22.551626-11.275813 45.103252-5.637907 62.016972 11.275813l16.91372 16.913719 39.465346-39.465346-16.91372-16.913719c-16.91372-16.91372-22.551626-39.465346-11.275813-62.016972 11.275813-22.551626 28.189533-33.827439 50.741159-33.82744h22.551626v-56.379065zM749.943536 261.015552c-56.379066 0-101.482318-45.103252-101.482318-101.482318s45.103252-101.482318 101.482318-101.482318 101.482318 45.103252 101.482318 101.482318c0 50.741159-45.103252 101.482318-101.482318 101.482318z m0-152.223477c-28.189533 0-45.103252 22.551626-45.103252 45.103253s22.551626 45.103252 45.103252 45.103252 45.103252-22.551626 45.103253-45.103252-22.551626-45.103252-45.103253-45.103253z"  horiz-adv-x="1041" />

    
    <glyph glyph-name="shanchu" unicode="&#59118;" d="M799.2 21.6c0-34.4-28-62.4-62.4-62.4H287.2c-34.4 0-62.4 28-62.4 62.4V684h574.4v-662.4zM349.6 796c0 7.2 5.6 12.8 12.8 12.8h300c7.2 0 12.8-5.6 12.8-12.8v-37.6H349.6v37.6z m636.8-37.6H749.6v37.6c0 48-39.2 87.2-87.2 87.2H362.4c-48 0-87.2-39.2-87.2-87.2v-37.6H37.6c-20.8 0-37.6-16.8-37.6-37.6s16.8-37.6 37.6-37.6h112v-661.6c0-76 61.6-137.6 137.6-137.6h449.6c76 0 137.6 61.6 137.6 137.6V684h112c20.8 0 37.6 16.8 37.6 37.6s-16.8 36.8-37.6 36.8zM512 72c20.8 0 37.6 16.8 37.6 37.6v400c0 20.8-16.8 37.6-37.6 37.6s-37.6-16.8-37.6-37.6v-400c0-20.8 16.8-37.6 37.6-37.6m-175.2 0c20.8 0 37.6 16.8 37.6 37.6v400c0 20.8-16.8 37.6-37.6 37.6s-37.6-16.8-37.6-37.6v-400c0.8-20.8 17.6-37.6 37.6-37.6m350.4 0c20.8 0 37.6 16.8 37.6 37.6v400c0 20.8-16.8 37.6-37.6 37.6s-37.6-16.8-37.6-37.6v-400c0-20.8 16.8-37.6 37.6-37.6"  horiz-adv-x="1024" />

    
    <glyph glyph-name="quanjushezhi2" unicode="&#59198;" d="M545.439217 501.834537c-66.858085 0-120.890729-54.57762-120.890729-120.890729 0-66.857085 54.032644-120.889729 120.890729-120.889729a120.754735 120.754735 0 0 1 120.889729 120.821732 120.754735 120.754735 0 0 1-120.889729 120.889729z m482.127977 42.980126h-5.662753a133.102196 133.102196 0 0 0-133.579175 132.55622c0 23.535974 11.324506 50.142814 11.869482 50.68879 13.372417 29.676706 3.070866 65.494144-23.740964 83.913341L739.737745 887.768709A80.775478 80.775478 0 0 1 709.309072 893.975438c-21.149078 0-41.820176-8.186643-55.260591-22.513018-14.872352-15.349331-65.971123-58.876433-105.744389-58.876433-39.568275-0.067997-91.213023 44.48106-106.222368 59.831391a75.726698 75.726698 0 0 1-83.572356 17.943218l-141.903813-77.364627c-28.311766-19.443152-38.613316-55.26059-25.241899-84.936296 0-0.546976 11.871482-26.60784 11.871482-50.68979a133.102196 133.102196 0 0 0-133.580175-132.624217h-5.662753c-25.241899 0-45.912998-21.491063-52.667704-55.260591C10.915524 487.439165 0 429.108708 0 383.536695c0-45.573013 10.847527-103.42549 11.324506-106.018377 6.208729-33.224551 26.879828-55.25959 52.667704-55.259591h5.662753c73.748784 0 133.580175-59.354412 133.580175-132.55622 0-23.604971-11.325506-50.211811-11.871482-50.689789-13.371417-29.676706-3.069866-65.493144 23.741965-83.913341l134.671128-74.77174c10.233554-4.639798 20.125122-6.139732 29.881697-6.139732 21.149078 0 41.820176 8.663622 55.737569 22.989997 19.102167 20.467108 70.132942 62.492275 107.7913 62.492275 40.797221 0 93.395928-47.073947 108.883252-63.447233a76.204677 76.204677 0 0 1 83.572356-17.942218l139.241929 76.272674c28.380762 19.443152 38.205334 55.805567 25.242899 84.936297 0 0.545976-11.802485 27.152816-11.802485 50.68979 0 73.202808 59.830391 132.624217 133.579175 132.624217h5.662753c25.241899 0 45.913998 21.490063 52.667704 55.26059 0 0.477979 11.324506 59.353412 11.324506 105.94938 0 45.027037-10.847527 103.42549-11.324506 105.472401-6.208729 33.292548-26.878828 55.25959-52.667704 55.259591zM549.191053 141.960229a238.846585 238.846585 0 0 0-238.779588 238.779588c0 131.804253 106.973336 238.777588 238.779588 238.777589s238.778588-106.972336 238.778589-238.778589-106.972336-238.778588-238.779589-238.778588z"  horiz-adv-x="1092" />

    
    <glyph glyph-name="shanchu1" unicode="&#58910;" d="M826.756414 13.029517c0-35.275034-28.954483-63.947034-64.547311-63.947034H297.101241a64.335448 64.335448 0 0 0-64.54731 63.911724V691.906207h594.202483v-678.841379zM361.648552 806.629517c0 7.415172 5.790897 13.135448 13.241379 13.135449h310.377931c7.415172 0 13.206069-5.755586 13.206069-13.135449v-38.523586h-336.825379V806.629517z m658.749793-38.523586h-244.947862V806.629517C775.415172 855.816828 734.878897 896 685.232552 896h-310.342621C325.243586 896 284.672 855.816828 284.672 806.664828v-38.558897h-245.76C17.37269 768.105931 0 750.874483 0 729.582345c0-21.327448 17.37269-38.558897 38.912-38.558897h115.817931v-677.993931C154.765241-64.865103 218.500414-128 297.136552-128h465.107862c78.600828 0 142.336 63.134897 142.336 141.029517V691.870897h115.853241c21.53931 0 38.912 17.196138 38.912 38.488275 0 21.362759-17.37269 37.746759-38.912 37.746759zM529.655172 64.653241c21.53931 0 38.912 17.231448 38.912 38.558897V513.129931c0 21.327448-17.408 38.523586-38.912 38.523586-21.53931 0-38.912-17.196138-38.912-38.523586v-409.953103c0-21.292138 17.408-38.488276 38.912-38.488276z m-181.248 0c21.53931 0 38.912 17.231448 38.912 38.558897V513.129931c0 21.327448-17.37269 38.523586-38.912 38.523586-21.53931 0-38.87669-17.196138-38.876689-38.523586v-409.953103c0.812138-21.292138 18.184828-38.488276 38.876689-38.488276z m362.496 0c21.53931 0 38.87669 17.231448 38.87669 38.558897V513.129931c0 21.327448-17.37269 38.523586-38.87669 38.523586-21.53931 0-38.912-17.196138-38.912-38.523586v-409.953103c0-21.292138 17.37269-38.488276 38.912-38.488276z"  horiz-adv-x="1059" />

    
    <glyph glyph-name="guanji2" unicode="&#58890;" d="M511.9 51.7c-41.5 0-81.7 8.1-119.6 24.1-36.5 15.4-69.7 37.7-97.7 65.8-63.9 63.8-96.5 152.4-89.1 242.4 7.5 90 54.2 172.1 127.7 224.5 10.7 6.3 24.5 3.3 31.7-6.7 7.2-10.1 5.6-24-3.7-32.2-32.9-23.7-60-54.6-78.9-90.5-19.6-37-29.8-78.3-29.6-120.2 0-69.2 27-134.3 75.9-183.3 48.5-48.8 114.5-76.2 183.3-76 69.2 0 134.4 27 183.4 76 48.8 48.5 76.1 114.5 75.9 183.3 0.1 41.9-10 83.2-29.6 120.2-19 35.8-46 66.8-78.9 90.4-10.8 7.7-13.2 22.7-5.5 33.5 7.7 10.8 22.7 13.2 33.5 5.5C764.2 556.2 810.9 474 818.4 384c7.4-90-25.2-178.7-89.1-242.4-57.6-57.7-135.9-90-217.4-89.9z m7.2 333.4c-6.4 0-12.5 2.5-17 7s-7 10.6-7 17V693.6c0.6 12.9 11.2 23 24.1 23 12.9 0 23.5-10.1 24.1-23v-284.5c-0.1-13.3-10.8-24-24.2-24z m0 0"  horiz-adv-x="1024" />

    
    <glyph glyph-name="anzhuo" unicode="&#58894;" d="M879.627501 199.102307a58.782861 58.782861 0 0 0-58.015015 59.465391V512.809971c0 32.76142 25.936124 59.380075 58.015015 59.380074 32.078891 0 58.015015-26.618654 58.015016-59.380074v-254.242273a58.868177 58.868177 0 0 0-58.015016-59.465391z m-158.090916-125.414813h-44.279108a61.427663 61.427663 0 0 0 2.303538-16.551342v-125.414813a58.868177 58.868177 0 0 0-58.015015-59.46539 58.782861 58.782861 0 0 0-58.100332 59.46539v125.414813c0 5.716185 0.853162 11.261738 2.303537 16.466026H457.824214a61.171715 61.171715 0 0 0 2.388853-16.466026v-125.414813a58.868177 58.868177 0 0 0-58.100331-59.46539 58.868177 58.868177 0 0 0-58.100332 59.46539v125.414813c0 5.716185 0.853162 11.261738 2.303538 16.466026h-44.279108a62.110193 62.110193 0 0 0-61.257031 62.792723V572.190045h542.013813v-435.795144a62.110193 62.110193 0 0 0-61.257031-62.707407z m-342.97112 736.278798L367.644991 826.773583 356.89515 843.239609 332.750666 880.352156a10.067311 10.067311 0 0 0 2.644802 13.650592 9.555414 9.555414 0 0 0 13.47996-2.730119l25.850808-39.672032 10.920473-16.721975 11.00579-16.892608c36.685966 14.418438 75.675469 21.670315 115.176869 21.584999 41.122408 0 80.197227-7.678458 115.176868-21.584999l11.00579 16.892608 10.920473 16.721975 25.850809 39.672032a9.555414 9.555414 0 0 0 13.479959 2.730119 10.067311 10.067311 0 0 0 2.559486-13.650592l-24.144484-37.112547-10.664525-16.466026-11.00579-16.721975c82.244816-39.245452 137.785661-113.299912 137.785662-198.274846H240.779803c0 84.974934 55.626162 159.114711 137.700346 198.274846zM627.944714 691.120827c16.124762 0 29.007508 13.309327 29.007508 29.690037a29.348772 29.348772 0 0 1-29.007508 29.690037 29.348772 29.348772 0 0 1-29.007507-29.690037c0-16.38071 12.968062-29.690037 29.007507-29.690037z m-232.230693 0c16.039445 0 29.007508 13.309327 29.007507 29.690037a29.348772 29.348772 0 0 1-29.007507 29.690037 29.348772 29.348772 0 0 1-29.092824-29.690037c0-16.38071 12.968062-29.690037 29.007508-29.690037zM143.945918 199.102307a58.782861 58.782861 0 0 0-58.015016 59.380074V512.809971c0 32.846737 25.936124 59.465391 58.015016 59.46539a58.868177 58.868177 0 0 0 58.100331-59.380074v-254.242273a58.868177 58.868177 0 0 0-58.100331-59.465391z"  horiz-adv-x="1024" />

    
    <glyph glyph-name="xiaoxi1" unicode="&#58891;" d="M1027.2 809.6c41.6 0 73.6-32 73.6-73.6v-521.6c0-41.6-32-73.6-73.6-73.6H848c-48 0-83.2-38.4-83.2-86.4v-19.2c-51.2 41.6-105.6 86.4-105.6 86.4-16 12.8-35.2 19.2-54.4 19.2h-448c-41.6 0-73.6 32-73.6 73.6V736c0 41.6 32 73.6 73.6 73.6h870.4z m0 86.4H156.8C70.4 896 0 825.6 0 736v-521.6c0-86.4 70.4-160 156.8-160h444.8S784-96 809.6-115.2c12.8-9.6 19.2-12.8 25.6-12.8 6.4 0 9.6 6.4 9.6 12.8V54.4H1024c86.4 0 156.8 70.4 156.8 160V736c3.2 89.6-67.2 160-153.6 160zM896 448c0-35.2-28.8-64-64-64s-64 28.8-64 64 28.8 64 64 64 64-28.8 64-64z m-224 0c0-35.2-28.8-64-64-64s-64 28.8-64 64 28.8 64 64 64 64-28.8 64-64z m-256 0c0-35.2-28.8-64-64-64s-64 28.8-64 64 28.8 64 64 64 64-28.8 64-64z"  horiz-adv-x="1184" />

    
    <glyph glyph-name="zhuanyi" unicode="&#59071;" d="M813.59872 603.428571L602.362149 751.323429a54.857143 54.857143 0 1 0 62.902857 89.965714L994.773577 610.377143c12.580571-8.777143 20.333714-21.796571 22.674286-35.84a54.857143 54.857143 0 0 0-48.274286-80.969143L54.887863 493.787429a54.857143 54.857143 0 0 0 0 109.714285h758.710857zM210.46272 156.306286l211.236571-147.968a54.857143 54.857143 0 1 0-62.902857-89.819429L29.287863 149.211429a54.710857 54.710857 0 0 0-22.674286 35.84 54.857143 54.857143 0 0 0 48.274286 80.969142h914.285714a54.857143 54.857143 0 1 0 0-109.714285H210.46272z"  horiz-adv-x="1024" />

    
    <glyph glyph-name="guanji3" unicode="&#59812;" d="M512 411.8c-28.6 0-51.9 23.3-51.9 51.9V780.1c0 28.6 23.3 51.9 51.9 51.9s51.9-23.3 51.9-51.9v-316.4c-0.1-28.6-23.3-51.9-51.9-51.9zM512-64c-222 0-402.6 180.6-402.6 402.7 0 130.6 63.9 253.5 171.1 329 8.8 6.2 19.2 9.5 29.9 9.5 16.9 0 32.7-8.2 42.4-22 8-11.3 11.1-25.1 8.7-38.7-2.4-13.7-9.9-25.6-21.2-33.6-79.6-56.1-127.1-147.4-127.1-244.3 0-164.8 134.1-298.9 298.9-298.9 164.8 0 298.9 134.1 298.9 298.9 0 96.9-47.5 188.2-127.1 244.3-11.3 7.9-18.8 19.8-21.2 33.5-2.4 13.7 0.7 27.5 8.7 38.8 9.7 13.8 25.6 22 42.4 22 10.8 0 21.1-3.3 29.9-9.6 107.1-75.5 171.1-198.4 171.1-329C914.7 116.6 734-64 512-64z"  horiz-adv-x="1024" />

    
    <glyph glyph-name="xiugai" unicode="&#58996;" d="M956.8 524.8c0 19.2 16 35.2 35.2 35.2s32-16 32-35.2v-550.4c0-57.6-44.8-102.4-102.4-102.4H102.4C44.8-128 0-83.2 0-25.6V793.6C0 851.2 44.8 896 102.4 896h560c19.2 0 35.2-16 35.2-35.2s-16-35.2-35.2-35.2H102.4c-19.2 0-35.2-16-35.2-35.2v-819.2c0-19.2 16-35.2 35.2-35.2h819.2c19.2 0 35.2 16 35.2 35.2V524.8zM364.8 188.8c-12.8-12.8-35.2-12.8-48 0-12.8 12.8-12.8 35.2 0 48L966.4 886.4c12.8 12.8 35.2 12.8 48 0 12.8-12.8 12.8-35.2 0-48L364.8 188.8z"  horiz-adv-x="1024" />

    
    <glyph glyph-name="shiliangzhinengduixiang" unicode="&#58899;" d="M163.408282-107.20133c-58.62549 0.12163-106.304312 47.800451-106.304312 106.425941V768.775389c0.12163 58.62549 47.800451 106.304312 106.425941 106.304312h538.940967c10.46015 0 20.190521-5.594964 25.420596-14.717188 5.230075-9.122224 5.230075-20.433781 0-29.556004-5.230075-9.000594-14.960447-14.717187-25.420596-14.717187H163.529911C137.257907 816.332581 115.85109 795.047393 115.85109 768.775389v-769.550778c0-26.272004 21.285188-47.557192 47.557192-47.557192h692.680841c26.272004 0 47.557192 21.285188 47.557192 47.557192V614.913885c-0.12163 10.581779 5.594964 20.433781 14.595557 25.663856 4.500297 2.554223 9.608742 4.013778 14.717188 4.013778 5.230075 0 10.33852-1.337926 14.717187-4.013778 9.122224-5.230075 14.717187-15.082076 14.595558-25.663856v-615.689274c0-58.62549-47.800451-106.304312-106.425942-106.425941H163.408282zM479.888624 358.396959c-11.919705 0-22.623114 7.176149-27.245041 18.122818-4.621927 11.068298-2.067704 23.596152 6.446371 32.110227L916.660687 866.079107c5.594964 5.594964 12.892743 8.635705 20.79867 8.635705 2.554223 0 5.108445-0.364889 7.662667-0.973037 10.095261-2.675852 18.122817-10.703409 20.79867-20.79867 2.675852-10.095261-0.243259-21.041929-7.662668-28.339708L500.808923 367.032664c-5.108445-5.108445-11.919705-8.149186-19.217484-8.514075l-1.702815-0.12163z"  horiz-adv-x="1024" />

    
    <glyph glyph-name="lianjie1" unicode="&#58882;" d="M762.24 389.12a32 32 0 0 0-46.08 44.16l55.68 58.24a125.76 125.76 0 0 1-12.16 171.2c-48.32 50.24-119.68 54.72-160 12.48L444.16 512a125.76 125.76 0 0 1 12.16-171.2 32 32 0 0 0 0-45.12 32 32 0 0 0-45.44 0 189.44 189.44 0 0 0-12.16 259.52l155.52 162.24c66.88 69.76 180.48 64 252.8-12.8A189.44 189.44 0 0 0 818.24 448zM229.76 378.88a32 32 0 0 0 46.08-44.16l-55.68-58.24a125.76 125.76 0 0 1 12.16-171.2c48.32-50.24 119.68-54.72 160-12.48L547.84 256a125.76 125.76 0 0 1-12.16 171.2 32 32 0 0 0 0 45.12 32 32 0 0 0 45.44 0 189.44 189.44 0 0 0 12.16-259.52L437.76 50.56c-66.88-69.76-180.48-64-252.8 12.8A189.44 189.44 0 0 0 173.76 320z"  horiz-adv-x="1024" />

    
    <glyph glyph-name="quanjushezhi3" unicode="&#58958;" d="M665.387-76.221h-0.007c-18.457 0.01-36.406 7.637-47.993 20.426-15.79 17.313-65.822 62.334-106.774 62.334-40.671 0-91.479-45.282-106.07-61.14-11.561-12.572-29.383-20.076-47.663-20.076-8.712 0-16.927 1.667-24.432 4.966l-1.316 0.57-124.48 69.615-1.238 0.863c-22.659 15.865-31.284 46.894-20.054 72.178 0.087 0.19 11.482 26.486 11.482 50.463 0 72.759-59.198 131.958-131.955 131.958h-4.412c-0.273-0.01-0.544-0.016-0.799-0.016-20.846 0-37.813 18.514-43.242 47.17-0.43 2.298-10.616 56.643-10.616 99.462 0 42.822 10.183 97.173 10.616 99.47 5.49 29.016 22.828 47.656 44.042 47.157h4.412c72.759 0 131.955 59.197 131.955 131.951 0 23.97-11.39 50.26-11.51 50.525-11.217 25.256-2.536 56.281 20.226 72.094l1.29 0.894 131.37 72.163 1.368 0.581c7.4 3.153 15.5 4.753 24.083 4.753 18.246 0 36.097-7.343 47.768-19.641 15.55-16.277 64.694-58.62 104.476-58.62 39.408 0 88.257 41.502 103.752 57.498 11.607 12.046 29.332 19.263 47.392 19.263 8.757 0 17.01-1.656 24.532-4.923l1.327-0.58 126.886-70.493 1.252-0.878c22.705-15.84 31.35-46.872 20.112-72.168-0.082-0.192-11.483-26.49-11.483-50.466 0-72.756 59.197-131.952 131.953-131.952h4.42c21.18 0.472 38.542-18.137 44.034-47.157 0.431-2.296 10.617-56.641 10.617-99.462 0-42.824-10.186-97.173-10.625-99.468-5.486-29.02-22.849-47.588-44.037-47.155h-4.409c-72.756 0-131.953-59.199-131.953-131.957 0-23.965 11.39-50.253 11.507-50.514 11.209-25.245 2.544-56.275-20.174-72.102l-1.27-0.891-129.03-71.315-1.342-0.583c-7.385-3.18-15.45-4.797-23.988-4.797z m-3.919 60.79c0.574-0.377 2.208-1.016 3.92-1.016 0.07 0 0.133 0 0.192 0.004l120.55 66.627c-2.91 6.757-16.214 39.569-16.214 73.784 0 102.347 80.606 186.222 181.672 191.467 1.452 8.033 9.348 53.217 9.348 87.113 0 33.895-7.896 79.058-9.348 87.115-101.063 5.248-181.672 89.122-181.672 191.464 0 34.27 13.344 67.12 16.229 73.83L667.55 820.844c-0.136 0.006-0.304 0.018-0.498 0.018-2.019 0-3.905-0.737-4.532-1.16-1.994-2.047-19.18-19.48-43.876-36.848C582.092 757.14 547.53 744.1 515.91 744.1c-31.92 0-66.763 13.299-103.55 39.518-24.847 17.705-42.117 35.473-44.111 37.557-0.632 0.428-2.547 1.186-4.583 1.186-0.158 0-0.298-0.005-0.422-0.012l-122.84-67.469c2.95-6.843 16.201-39.596 16.201-73.755 0-102.34-80.604-186.215-181.67-191.465-1.453-8.037-9.348-53.215-9.348-87.114 0-33.892 7.894-79.052 9.355-87.106 101.056-5.251 181.664-89.121 181.664-191.465 0-34.343-13.398-67.246-16.252-73.868l116.265-65.012c0.073-0.01 0.162-0.01 0.261-0.01 1.696 0 3.305 0.624 3.883 0.995 2.173 2.33 19.535 20.714 44.55 39.047 37.28 27.324 72.707 41.174 105.301 41.174 32.898 0 68.597-14.114 106.094-41.961 25.158-18.677 42.596-37.4 44.761-39.771z m-150.432 242.92c-96.893 0-175.724 78.832-175.724 175.729 0 96.894 78.832 175.725 175.724 175.725 96.898 0 175.734-78.831 175.734-175.725 0-96.897-78.836-175.73-175.734-175.73z m0 291.683c-63.936 0-115.95-52.015-115.95-115.952 0-63.94 52.015-115.957 115.95-115.957 63.942 0 115.965 52.016 115.965 115.956 0 63.938-52.02 115.953-115.965 115.953z"  horiz-adv-x="1024" />

    
    <glyph glyph-name="pingmu-" unicode="&#59144;" d="M889 693v-484.9H132.8V693H889m17.5 70.1H115.3c-29 0-52.5-23.5-52.5-52.5v-519.9c0-29 23.5-52.5 52.5-52.5h791.3c29 0 52.5 23.5 52.5 52.5V710.5c-0.1 29-23.6 52.6-52.6 52.6z m0 0M517.5 138.1V76h-13.4v62.1h13.4m17.5 70h-48.4c-29 0-52.5-23.5-52.5-52.5v-97.2c0-29 23.5-52.5 52.5-52.5H535c29 0 52.5 23.5 52.5 52.5v97.2c0.1 29-23.5 52.5-52.5 52.5z m0 0M695.6 75.9H326.2c-19.3 0-35-15.7-35-35s15.7-35 35-35h369.4c19.3 0 35 15.7 35 35 0 19.4-15.7 35-35 35zM510.9 287.3c-19.3 0-35-15.7-35-35s15.7-35 35-35 35 15.7 35 35c0 19.4-15.7 35-35 35z m0 0"  horiz-adv-x="1024" />

    
    <glyph glyph-name="shanchu2" unicode="&#59030;" d="M799.2 21.6c0-34.4-28-62.4-62.368-62.4H287.2a62.496 62.496 0 0 0-62.4 62.4V684h574.4v-662.4zM349.6 796c0 7.2 5.6 12.8 12.8 12.8h300c7.2 0 12.768-5.6 12.768-12.8v-37.6H349.6V796z m636.8-37.6H749.6V796c0 48-39.2 87.2-87.2 87.2h-300a87.392 87.392 0 0 1-87.2-87.2v-37.6H37.6C16.8 758.4 0 741.6 0 720.8s16.8-37.6 37.6-37.6h112v-661.6A137.6 137.6 0 0 1 287.2-116h449.6a137.6 137.6 0 0 1 137.6 137.6V684h112c20.8 0 37.6 16.8 37.6 37.6s-16.8 36.8-37.6 36.8zM512 72c20.8 0 37.6 16.8 37.6 37.6v400c0 20.8-16.768 37.6-37.6 37.6-20.8 0-37.6-16.8-37.6-37.6v-400c0-20.8 16.8-37.6 37.6-37.6m-175.2 0c20.8 0 37.6 16.8 37.6 37.6v400c0 20.8-16.8 37.6-37.6 37.6s-37.6-16.8-37.6-37.6v-400c0.8-20.8 17.6-37.6 37.6-37.6m350.4 0c20.8 0 37.632 16.8 37.632 37.6v400c0 20.8-16.8 37.6-37.632 37.6-20.768 0-37.6-16.8-37.6-37.6v-400c0-20.8 16.8-37.6 37.6-37.6"  horiz-adv-x="1024" />

    
    <glyph glyph-name="xuankuang2" unicode="&#59119;" d="M113.777778 896h796.444444a113.777778 113.777778 0 0 0 113.777778-113.777778v-796.444444a113.777778 113.777778 0 0 0-113.777778-113.777778H113.777778a113.777778 113.777778 0 0 0-113.777778 113.777778V782.222222a113.777778 113.777778 0 0 0 113.777778 113.777778z m0-56.888889a56.888889 56.888889 0 0 1-56.888889-56.888889v-796.444444a56.888889 56.888889 0 0 1 56.888889-56.888889h796.444444a56.888889 56.888889 0 0 1 56.888889 56.888889V782.222222a56.888889 56.888889 0 0 1-56.888889 56.888889H113.777778z m363.690666-639.203555l353.905778 429.738666 43.918222-36.181333-395.662222-480.483556-273.066666 300.202667 42.040888 38.286222 228.864-251.562666z"  horiz-adv-x="1024" />

    
    <glyph glyph-name="ziyuan" unicode="&#58897;" d="M949.797101-128H74.202899a74.202899 74.202899 0 0 0-74.202899 74.202899V821.797101A74.202899 74.202899 0 0 0 74.202899 896h875.594202a74.202899 74.202899 0 0 0 74.202899-74.202899v-875.594202a74.202899 74.202899 0 0 0-74.202899-74.202899zM74.202899 821.797101v-875.594202h875.594202V821.797101zM374.473577 232.115292m26.234686 26.234686l381.609748 381.609748q26.234686 26.234686 52.469373 0l0 0q26.234686-26.234686 0-52.469372l-381.609748-381.609748q-26.234686-26.234686-52.469373 0l0 0q-26.234686 26.234686 0 52.469372ZM272.191072 438.858203L455.828406 255.213449l-52.461449-52.461449-183.652174 183.637333a37.101449 37.101449 0 0 0 0 52.46145 37.101449 37.101449 0 0 0 52.476289 0z"  horiz-adv-x="1024" />

    


  </font>
</defs>
</svg>
